{
  "source": "C:\\Users\\Peter\\Desktop\\stuff\\MIUN\\quantitative_research\\video_compression\\videos\\BVI-HD\\BVI-HD_CDVL_videos\\ORIG\\PlasmaSlowRandom_1920x1080_60fps.mp4",
  "output": "C:\\Users\\Peter\\Desktop\\stuff\\MIUN\\quantitative_research\\video_compression\\compressed_videos\\BVI-HD\\av1\\2\\PlasmaSlowRandom_1920x1080_60fps_av1.mkv",
  "codec": "av1",
  "ok": "Input #0, mov,mp4,m4a,3gp,3g2,mj2, from 'C:\\Users\\Peter\\Desktop\\stuff\\MIUN\\quantitative_research\\video_compression\\videos\\BVI-HD\\BVI-HD_CDVL_videos\\ORIG\\PlasmaSlowRandom_1920x1080_60fps.mp4':\n  Metadata:\n    major_brand     : isom\n    minor_version   : 512\n    compatible_brands: isomiso2avc1mp41\n    encoder         : Lavf54.28.101\n  Duration: 00:00:05.00, start: 0.000000, bitrate: 23030 kb/s\n  Stream #0:0[0x1](und): Video: h264 (High 4:4:4 Predictive) (avc1 / 0x31637661), yuv420p(progressive), 1920x1080, 23026 kb/s, 60 fps, 60 tbr, 60 tbn (default)\n    Metadata:\n      handler_name    : VideoHandler\n      vendor_id       : [0][0][0][0]\n[out#0/matroska @ 000002920c5a4d00] Codec AVOption b:a (set bitrate (in bits/s)) has not been used for any stream. The most likely reason is either wrong type (e.g. a video option with no video streams) or that it is a private option of some decoder which was not actually used for any stream.\nStream mapping:\n  Stream #0:0 -> #0:0 (h264 (native) -> av1 (libsvtav1))\nPress [q] to stop, [?] for help\nSvt[info]: -------------------------------------------\nSvt[info]: SVT [version]:\tSVT-AV1 Encoder Lib v3.1.0-19-g6ecfe8ec\nSvt[info]: SVT [build]  :\tGCC 15.2.0\t 64 bit\nSvt[info]: LIB Build date: Aug 17 2025 11:37:13\nSvt[info]: -------------------------------------------\nSvt[info]: Level of Parallelism: 5\nSvt[info]: Number of PPCS 93\nSvt[info]: [asm level on system : up to avx2]\nSvt[info]: [asm level selected : up to avx2]\nSvt[info]: -------------------------------------------\nSvt[info]: SVT [config]: main profile\ttier (auto)\tlevel (auto)\nSvt[info]: SVT [config]: width / height / fps numerator / fps denominator \t\t: 1920 / 1080 / 60 / 1\nSvt[info]: SVT [config]: bit-depth / color format \t\t\t\t\t: 8 / YUV420\nSvt[info]: SVT [config]: preset / tune / pred struct \t\t\t\t\t: 4 / PSNR / random access\nSvt[info]: SVT [config]: gop size / mini-gop size / key-frame type \t\t\t: 321 / 16 / key frame\nSvt[info]: SVT [config]: BRC mode / target bitrate (kbps)\t\t\t\t: VBR / 2000 \nSvt[info]: SVT [config]: AQ mode / Variance Boost \t\t\t\t\t: 2 / 0\nSvt[info]: SVT [config]: sharpness / luminance-based QP bias \t\t\t\t: 0 / 0\nSvt[info]: SVT [config]: QP scale compress strength \t\t\t\t\t: 0\nSvt[info]: -------------------------------------------\nOutput #0, matroska, to 'C:\\Users\\Peter\\Desktop\\stuff\\MIUN\\quantitative_research\\video_compression\\compressed_videos\\BVI-HD\\av1\\2\\PlasmaSlowRandom_1920x1080_60fps_av1.mkv':\n  Metadata:\n    major_brand     : isom\n    minor_version   : 512\n    compatible_brands: isomiso2avc1mp41\n    encoder         : Lavf62.3.100\n  Stream #0:0(und): Video: av1 (AV01 / 0x31305641), yuv420p(tv, progressive), 1920x1080, q=2-31, 2000 kb/s, 60 fps, 1k tbn (default)\n    Metadata:\n      encoder         : Lavc62.11.100 libsvtav1\n      handler_name    : VideoHandler\n      vendor_id       : [0][0][0][0]\n    Side data:\n      cpb: bitrate max/min/avg: 0/0/2000000 buffer size: 2000000 vbv_delay: N/A\nframe=    0 fps=0.0 q=0.0 size=       0KiB time=N/A bitrate=N/A speed=N/A elapsed=0:00:00.52    \nframe=    0 fps=0.0 q=0.0 size=       0KiB time=N/A bitrate=N/A speed=N/A elapsed=0:00:01.07    \nframe=    1 fps=0.6 q=12.0 size=       1KiB time=00:00:00.00 bitrate=N/A speed=   0x elapsed=0:00:01.61    \nframe=    1 fps=0.5 q=12.0 size=       1KiB time=00:00:00.00 bitrate=N/A speed=   0x elapsed=0:00:02.14    \nframe=    6 fps=2.2 q=27.0 size=       1KiB time=00:00:00.08 bitrate=  68.4kbits/s speed=0.0311x elapsed=0:00:02.67    \nframe=   11 fps=3.4 q=21.0 size=       1KiB time=00:00:00.16 bitrate=  34.2kbits/s speed=0.0517x elapsed=0:00:03.22    \nframe=   17 fps=4.5 q=13.0 size=       1KiB time=00:00:00.26 bitrate=  21.4kbits/s speed=0.0712x elapsed=0:00:03.74    \nframe=   21 fps=4.9 q=19.0 size=       1KiB time=00:00:00.33 bitrate=  17.1kbits/s speed=0.0781x elapsed=0:00:04.26    \nframe=   26 fps=5.4 q=20.0 size=       1KiB time=00:00:00.41 bitrate=  13.7kbits/s speed=0.0867x elapsed=0:00:04.80    \nframe=   32 fps=6.0 q=19.0 size=       1KiB time=00:00:00.51 bitrate=  11.0kbits/s speed=0.0966x elapsed=0:00:05.34    \nframe=   37 fps=6.3 q=19.0 size=       1KiB time=00:00:00.60 bitrate=   9.5kbits/s speed=0.102x elapsed=0:00:05.86    \nframe=   43 fps=6.7 q=21.0 size=       1KiB time=00:00:00.70 bitrate=   8.1kbits/s speed=0.11x elapsed=0:00:06.38    \nframe=   50 fps=7.2 q=21.0 size=       1KiB time=00:00:00.81 bitrate=   7.0kbits/s speed=0.118x elapsed=0:00:06.90    \nframe=   55 fps=7.4 q=19.0 size=       1KiB time=00:00:00.90 bitrate=   6.3kbits/s speed=0.121x elapsed=0:00:07.42    \nframe=   62 fps=7.8 q=20.0 size=       1KiB time=00:00:01.01 bitrate=   5.6kbits/s speed=0.128x elapsed=0:00:07.93    \nframe=   68 fps=8.0 q=21.0 size=       1KiB time=00:00:01.11 bitrate=   5.1kbits/s speed=0.132x elapsed=0:00:08.45    \nframe=   74 fps=8.3 q=22.0 size=       1KiB time=00:00:01.21 bitrate=   4.7kbits/s speed=0.136x elapsed=0:00:08.96    \nframe=   81 fps=8.5 q=7.0 size=       1KiB time=00:00:01.33 bitrate=   4.3kbits/s speed=0.141x elapsed=0:00:09.48    \nframe=   86 fps=8.6 q=21.0 size=       1KiB time=00:00:01.41 bitrate=   4.0kbits/s speed=0.142x elapsed=0:00:10.00    \nframe=   92 fps=8.7 q=22.0 size=       1KiB time=00:00:01.51 bitrate=   3.8kbits/s speed=0.144x elapsed=0:00:10.51    \nframe=  100 fps=9.1 q=23.0 size=       1KiB time=00:00:01.65 bitrate=   3.5kbits/s speed=0.15x elapsed=0:00:11.03    \nframe=  106 fps=9.2 q=27.0 size=       1KiB time=00:00:01.75 bitrate=   3.3kbits/s speed=0.151x elapsed=0:00:11.56    \nframe=  113 fps=9.4 q=10.0 size=       1KiB time=00:00:01.86 bitrate=   3.1kbits/s speed=0.155x elapsed=0:00:12.07    \nframe=  118 fps=9.4 q=26.0 size=       1KiB time=00:00:01.95 bitrate=   2.9kbits/s speed=0.155x elapsed=0:00:12.59    \nframe=  124 fps=9.5 q=26.0 size=       1KiB time=00:00:02.05 bitrate=   2.8kbits/s speed=0.156x elapsed=0:00:13.11    \nframe=  131 fps=9.6 q=24.0 size=       1KiB time=00:00:02.16 bitrate=   2.6kbits/s speed=0.159x elapsed=0:00:13.62    \nframe=  135 fps=9.5 q=24.0 size=       1KiB time=00:00:02.23 bitrate=   2.6kbits/s speed=0.158x elapsed=0:00:14.14    \nframe=  144 fps=9.8 q=21.0 size=       1KiB time=00:00:02.38 bitrate=   2.4kbits/s speed=0.162x elapsed=0:00:14.70    \nframe=  149 fps=9.8 q=24.0 size=       1KiB time=00:00:02.46 bitrate=   2.3kbits/s speed=0.162x elapsed=0:00:15.21    \nframe=  155 fps=9.8 q=24.0 size=       1KiB time=00:00:02.56 bitrate=   2.2kbits/s speed=0.163x elapsed=0:00:15.73    \nframe=  163 fps= 10 q=26.0 size=       1KiB time=00:00:02.70 bitrate=   2.1kbits/s speed=0.166x elapsed=0:00:16.25    \nframe=  167 fps= 10 q=26.0 size=       1KiB time=00:00:02.76 bitrate=   2.1kbits/s speed=0.165x elapsed=0:00:16.77    \nframe=  176 fps= 10 q=26.0 size=       1KiB time=00:00:02.91 bitrate=   2.0kbits/s speed=0.169x elapsed=0:00:17.29    \nframe=  181 fps= 10 q=22.0 size=       1KiB time=00:00:03.00 bitrate=   1.9kbits/s speed=0.168x elapsed=0:00:17.80    \nframe=  187 fps= 10 q=25.0 size=       1KiB time=00:00:03.10 bitrate=   1.8kbits/s speed=0.169x elapsed=0:00:18.32    \nframe=  195 fps= 10 q=26.0 size=       1KiB time=00:00:03.23 bitrate=   1.8kbits/s speed=0.172x elapsed=0:00:18.84    \nframe=  199 fps= 10 q=26.0 size=       1KiB time=00:00:03.30 bitrate=   1.7kbits/s speed=0.17x elapsed=0:00:19.37    \nframe=  207 fps= 10 q=25.0 size=       1KiB time=00:00:03.43 bitrate=   1.7kbits/s speed=0.173x elapsed=0:00:19.89    \nframe=  213 fps= 10 q=20.0 size=       1KiB time=00:00:03.53 bitrate=   1.6kbits/s speed=0.173x elapsed=0:00:20.42    \nframe=  217 fps= 10 q=22.0 size=       1KiB time=00:00:03.60 bitrate=   1.6kbits/s speed=0.172x elapsed=0:00:20.93    \nframe=  225 fps= 10 q=16.0 size=       1KiB time=00:00:03.73 bitrate=   1.5kbits/s speed=0.174x elapsed=0:00:21.45    \nframe=  231 fps= 11 q=26.0 size=       1KiB time=00:00:03.83 bitrate=   1.5kbits/s speed=0.174x elapsed=0:00:21.98    \nframe=  235 fps= 10 q=24.0 size=       1KiB time=00:00:03.90 bitrate=   1.5kbits/s speed=0.173x elapsed=0:00:22.50    \nframe=  241 fps= 10 q=13.0 size=       1KiB time=00:00:04.00 bitrate=   1.4kbits/s speed=0.174x elapsed=0:00:23.01    \nframe=  249 fps= 11 q=20.0 size=       1KiB time=00:00:04.13 bitrate=   1.4kbits/s speed=0.176x elapsed=0:00:23.53    \nframe=  253 fps= 11 q=20.0 size=       1KiB time=00:00:04.20 bitrate=   1.4kbits/s speed=0.175x elapsed=0:00:24.05    \nframe=  261 fps= 11 q=24.0 size=       1KiB time=00:00:04.33 bitrate=   1.3kbits/s speed=0.176x elapsed=0:00:24.58    \nframe=  265 fps= 11 q=20.0 size=       1KiB time=00:00:04.40 bitrate=   1.3kbits/s speed=0.175x elapsed=0:00:25.09    \nframe=  271 fps= 11 q=27.0 size=       1KiB time=00:00:04.50 bitrate=   1.3kbits/s speed=0.176x elapsed=0:00:25.60    \nframe=  279 fps= 11 q=27.0 size=       1KiB time=00:00:04.63 bitrate=   1.2kbits/s speed=0.177x elapsed=0:00:26.13    \nframe=  285 fps= 11 q=27.0 size=       1KiB time=00:00:04.73 bitrate=   1.2kbits/s speed=0.178x elapsed=0:00:26.66    \n[out#0/matroska @ 000002920c5a4d00] video:1174KiB audio:0KiB subtitle:0KiB other streams:0KiB global headers:0KiB muxing overhead: 0.176757%\nframe=  300 fps= 11 q=27.0 Lsize=    1176KiB time=00:00:04.98 bitrate=1933.4kbits/s speed=0.184x elapsed=0:00:27.07    \n",
  "seconds": 27.526514530181885,
  "probe_out": {}
}